<?xml version="1.0" encoding="UTF-8"?> <!-- Generator: Adobe Illustrator 19.1.0, SVG Export Plug-In . SVG Version: 6.00 Build 0) --> <svg xmlns="http://www.w3.org/2000/svg" xmlns:xlink="http://www.w3.org/1999/xlink" id="Layer_1" x="0px" y="0px" viewBox="0 0 350.4 153" xml:space="preserve"> <g> <path fill="#545BA8" d="M0.2,0.2H38v42.7h35.4V0.2h37.8V123H73.5V74.4H38V123H0.2V0.2z M115.8,123h-13.2v-5.9h13.2V123z"></path> <path fill="#5D9FBE" d="M111.8,86.1c0.9,10.1,6.7,17.4,17.4,17.4c5.5,0,11.5-2.1,14.3-6.4h31.8c-6.9,19.3-25.6,28.2-45.9,28.2 c-28.6,0-50.1-16.9-50.1-46.6c0-26,18.9-47.1,47.1-47.1c35.4,0,50.7,19.8,50.7,54.5H111.8z M144.5,68.3c0-8.3-6.2-15-15-15 c-10.1,0-16,5.3-17.5,15H144.5z"></path> <path fill="#79C79C" d="M172,0.2H206v59.3l21.7-25.8h38.5l-31.8,33.7l36.8,55.6h-40.9l-18.2-32.3l-6,6.5V123H172V0.2z"></path> <path fill="#99CA45" d="M346.1,103.1c0,6.7,0.3,14.3,4.1,20h-34.7c-0.9-2.4-1.4-6-1.2-8.4h-0.3c-7.2,8.3-17.7,10.7-28.7,10.7 c-17.2,0-31.5-8.3-31.5-27c0-28.2,33-27.2,50.4-30.4c4.6-0.9,9.3-2.2,9.3-7.9c0-6-5.7-8.3-11.2-8.3c-10.5,0-12.6,5.3-12.7,9.1 h-31.6c0.5-12.6,6.7-20,15.5-24.1c8.6-4.1,20-5.2,30.4-5.2c42.7,0,42.3,17.7,42.3,34.9V103.1z M313.4,83c-4.1,2.1-8.8,3.3-13.4,4.3 c-7.6,1.7-11.5,3.6-11.5,9.6c0,4.1,4.5,8.3,10.7,8.3c7.7,0,13.8-4.6,14.3-13.9V83z"></path> <g> <path fill="#808285" d="M174.9,146.5c0,0.6,0.1,1.2,0.3,1.7c0.2,0.5,0.5,0.8,0.9,1.1c0.4,0.3,0.8,0.5,1.3,0.6s1.1,0.2,1.6,0.2 c0.6,0,1.2-0.1,1.6-0.2c0.5-0.1,0.8-0.3,1.1-0.6c0.3-0.2,0.5-0.5,0.6-0.8c0.1-0.3,0.2-0.6,0.2-0.9c0-0.6-0.1-1.1-0.4-1.4 c-0.3-0.3-0.6-0.5-0.9-0.7c-0.6-0.2-1.3-0.4-2.1-0.6s-1.8-0.5-2.9-0.8c-0.7-0.2-1.3-0.4-1.8-0.7s-0.9-0.7-1.1-1 c-0.3-0.4-0.5-0.8-0.6-1.2c-0.1-0.4-0.2-0.9-0.2-1.3c0-0.9,0.2-1.6,0.5-2.2c0.3-0.6,0.8-1.1,1.4-1.6c0.6-0.4,1.2-0.7,2-0.9 c0.7-0.2,1.5-0.3,2.2-0.3c0.9,0,1.7,0.1,2.5,0.3c0.8,0.2,1.4,0.6,2,1c0.6,0.5,1,1,1.4,1.7c0.3,0.7,0.5,1.4,0.5,2.3h-2.9 c-0.1-1.1-0.4-1.9-1.1-2.3c-0.7-0.5-1.5-0.7-2.5-0.7c-0.3,0-0.7,0-1.1,0.1c-0.4,0.1-0.7,0.2-1,0.4c-0.3,0.2-0.5,0.4-0.7,0.7 c-0.2,0.3-0.3,0.6-0.3,1.1c0,0.6,0.2,1.1,0.5,1.4c0.4,0.3,0.8,0.6,1.4,0.8c0.1,0,0.3,0.1,0.7,0.2c0.4,0.1,0.9,0.2,1.4,0.4 c0.5,0.1,1,0.3,1.6,0.4c0.5,0.1,0.9,0.2,1.1,0.3c0.5,0.2,1,0.4,1.4,0.7c0.4,0.3,0.7,0.6,1,1c0.3,0.4,0.5,0.8,0.6,1.2 c0.1,0.4,0.2,0.9,0.2,1.3c0,0.9-0.2,1.8-0.6,2.4c-0.4,0.7-0.9,1.2-1.5,1.6c-0.6,0.4-1.3,0.7-2.1,0.9c-0.8,0.2-1.6,0.3-2.4,0.3 c-0.9,0-1.8-0.1-2.7-0.4c-0.8-0.2-1.6-0.6-2.2-1.1c-0.6-0.5-1.1-1.1-1.5-1.9c-0.4-0.8-0.6-1.7-0.6-2.7H174.9z"></path> <path fill="#808285" d="M201,134.8c1.2,0,2.4,0.2,3.3,0.7c1,0.5,1.8,1.1,2.5,1.9c0.7,0.8,1.2,1.7,1.6,2.8s0.5,2.2,0.5,3.4 c0,1.2-0.2,2.4-0.5,3.4c-0.4,1.1-0.9,2-1.6,2.8c-0.7,0.8-1.5,1.4-2.5,1.9c-1,0.5-2.1,0.7-3.3,0.7s-2.4-0.2-3.3-0.7 c-1-0.5-1.8-1.1-2.5-1.9c-0.7-0.8-1.2-1.7-1.6-2.8c-0.4-1.1-0.5-2.2-0.5-3.4c0-1.2,0.2-2.3,0.5-3.4c0.4-1.1,0.9-2,1.6-2.8 c0.7-0.8,1.5-1.4,2.5-1.9C198.6,135,199.7,134.8,201,134.8z M201,137.2c-0.9,0-1.7,0.2-2.3,0.5c-0.6,0.4-1.2,0.8-1.6,1.5 c-0.4,0.6-0.7,1.3-0.9,2.1c-0.2,0.8-0.3,1.6-0.3,2.4c0,0.8,0.1,1.6,0.3,2.4s0.5,1.5,0.9,2.1c0.4,0.6,0.9,1.1,1.6,1.5 c0.6,0.4,1.4,0.5,2.3,0.5s1.7-0.2,2.3-0.5c0.6-0.4,1.2-0.8,1.6-1.5c0.4-0.6,0.7-1.3,0.9-2.1s0.3-1.6,0.3-2.4 c0-0.8-0.1-1.6-0.3-2.4c-0.2-0.8-0.5-1.5-0.9-2.1c-0.4-0.6-0.9-1.1-1.6-1.5C202.6,137.4,201.9,137.2,201,137.2z"></path> <path fill="#808285" d="M217.5,135.2h2.9v14.4h8.5v2.6h-11.4V135.2z"></path> <path fill="#808285" d="M236.5,135.2h2.9v9.9c0,0.6,0,1.1,0.1,1.7c0.1,0.6,0.2,1.1,0.5,1.6c0.3,0.5,0.6,0.8,1.2,1.1 c0.5,0.3,1.3,0.5,2.2,0.5s1.7-0.1,2.2-0.5c0.5-0.3,0.9-0.7,1.2-1.1s0.4-1,0.5-1.6c0.1-0.6,0.1-1.2,0.1-1.7v-9.9h2.9V146 c0,1.1-0.2,2-0.5,2.8c-0.3,0.8-0.8,1.5-1.4,2c-0.6,0.5-1.3,1-2.2,1.2c-0.8,0.3-1.8,0.4-2.8,0.4s-2-0.1-2.8-0.4 c-0.8-0.3-1.6-0.7-2.2-1.2c-0.6-0.5-1.1-1.2-1.4-2c-0.3-0.8-0.5-1.8-0.5-2.8V135.2z"></path> <path fill="#808285" d="M257.8,135.2h13.5v2.6h-5.3v14.4H263v-14.4h-5.3V135.2z"></path> <path fill="#808285" d="M279,135.2h2.9v16.9H279V135.2z"></path> <path fill="#808285" d="M298.4,134.8c1.2,0,2.4,0.2,3.3,0.7c1,0.5,1.8,1.1,2.5,1.9c0.7,0.8,1.2,1.7,1.6,2.8s0.5,2.2,0.5,3.4 c0,1.2-0.2,2.4-0.5,3.4c-0.4,1.1-0.9,2-1.6,2.8c-0.7,0.8-1.5,1.4-2.5,1.9c-1,0.5-2.1,0.7-3.3,0.7c-1.2,0-2.4-0.2-3.3-0.7 c-1-0.5-1.8-1.1-2.5-1.9c-0.7-0.8-1.2-1.7-1.6-2.8c-0.4-1.1-0.5-2.2-0.5-3.4c0-1.2,0.2-2.3,0.5-3.4s0.9-2,1.6-2.8 c0.7-0.8,1.5-1.4,2.5-1.9C296.1,135,297.2,134.8,298.4,134.8z M298.4,137.2c-0.9,0-1.7,0.2-2.3,0.5c-0.6,0.4-1.2,0.8-1.6,1.5 c-0.4,0.6-0.7,1.3-0.9,2.1c-0.2,0.8-0.3,1.6-0.3,2.4c0,0.8,0.1,1.6,0.3,2.4s0.5,1.5,0.9,2.1c0.4,0.6,0.9,1.1,1.6,1.5 c0.6,0.4,1.4,0.5,2.3,0.5s1.7-0.2,2.3-0.5c0.6-0.4,1.2-0.8,1.6-1.5c0.4-0.6,0.7-1.3,0.9-2.1s0.3-1.6,0.3-2.4 c0-0.8-0.1-1.6-0.3-2.4c-0.2-0.8-0.5-1.5-0.9-2.1c-0.4-0.6-0.9-1.1-1.6-1.5C300.1,137.4,299.3,137.2,298.4,137.2z"></path> <path fill="#808285" d="M314.8,135.2h3.1l7.6,12.5h0v-12.5h2.8v16.9h-3.1l-7.6-12.4h-0.1v12.4h-2.8V135.2z"></path> <path fill="#808285" d="M339.5,146.5c0,0.6,0.1,1.2,0.3,1.7c0.2,0.5,0.5,0.8,0.9,1.1c0.4,0.3,0.8,0.5,1.3,0.6s1.1,0.2,1.6,0.2 c0.6,0,1.2-0.1,1.6-0.2c0.5-0.1,0.8-0.3,1.1-0.6c0.3-0.2,0.5-0.5,0.6-0.8c0.1-0.3,0.2-0.6,0.2-0.9c0-0.6-0.1-1.1-0.4-1.4 c-0.3-0.3-0.6-0.5-0.9-0.7c-0.6-0.2-1.3-0.4-2.1-0.6c-0.8-0.2-1.8-0.5-2.9-0.8c-0.7-0.2-1.3-0.4-1.8-0.7c-0.5-0.3-0.9-0.7-1.1-1 c-0.3-0.4-0.5-0.8-0.6-1.2c-0.1-0.4-0.2-0.9-0.2-1.3c0-0.9,0.2-1.6,0.5-2.2c0.3-0.6,0.8-1.1,1.4-1.6c0.6-0.4,1.2-0.7,2-0.9 c0.7-0.2,1.5-0.3,2.2-0.3c0.9,0,1.7,0.1,2.5,0.3c0.8,0.2,1.4,0.6,2,1c0.6,0.5,1,1,1.4,1.7c0.3,0.7,0.5,1.4,0.5,2.3h-2.9 c-0.1-1.1-0.4-1.9-1.1-2.3c-0.7-0.5-1.5-0.7-2.5-0.7c-0.3,0-0.7,0-1,0.1c-0.4,0.1-0.7,0.2-1,0.4c-0.3,0.2-0.5,0.4-0.7,0.7 c-0.2,0.3-0.3,0.6-0.3,1.1c0,0.6,0.2,1.1,0.5,1.4c0.4,0.3,0.8,0.6,1.4,0.8c0.1,0,0.3,0.1,0.7,0.2c0.4,0.1,0.9,0.2,1.4,0.4 c0.5,0.1,1,0.3,1.6,0.4c0.5,0.1,0.9,0.2,1.1,0.3c0.5,0.2,1,0.4,1.4,0.7s0.7,0.6,1,1c0.3,0.4,0.5,0.8,0.6,1.2 c0.1,0.4,0.2,0.9,0.2,1.3c0,0.9-0.2,1.8-0.6,2.4c-0.4,0.7-0.9,1.2-1.5,1.6c-0.6,0.4-1.3,0.7-2.1,0.9c-0.8,0.2-1.6,0.3-2.4,0.3 c-0.9,0-1.8-0.1-2.7-0.4c-0.8-0.2-1.6-0.6-2.2-1.1c-0.6-0.5-1.1-1.1-1.5-1.9c-0.4-0.8-0.6-1.7-0.6-2.7H339.5z"></path> </g> <g> <g> <line fill="none" stroke="#D1D3D4" stroke-width="3.2" stroke-miterlimit="10" x1="158.9" y1="132.1" x2="137.5" y2="147.6"></line> <line fill="none" stroke="#D1D3D4" stroke-width="3.2" stroke-miterlimit="10" x1="137.5" y1="147.6" x2="118.1" y2="138.6"></line> <line fill="none" stroke="#D1D3D4" stroke-width="3.2" stroke-miterlimit="10" x1="118.1" y1="138.6" x2="93.2" y2="146.2"></line> <line fill="none" stroke="#D1D3D4" stroke-width="3.2" stroke-miterlimit="10" x1="93.2" y1="146.7" x2="68.3" y2="132.1"></line> <line fill="none" stroke="#D1D3D4" stroke-width="3.2" stroke-miterlimit="10" x1="68.3" y1="132.1" x2="46.2" y2="142.4"></line> <line fill="none" stroke="#D1D3D4" stroke-width="3.2" stroke-miterlimit="10" x1="46.2" y1="142.4" x2="27.5" y2="133.9"></line> <line fill="none" stroke="#D1D3D4" stroke-width="3.2" stroke-miterlimit="10" x1="27.5" y1="133.9" x2="5.8" y2="144"></line> </g> <circle fill="#5D9FBE" cx="118.1" cy="138.6" r="5.6"></circle> <circle fill="#77C79A" cx="137.5" cy="147.1" r="5.6"></circle> <circle fill="#5D9FBE" cx="27.5" cy="134.1" r="5.6"></circle> <circle fill="#545BA8" cx="5.8" cy="144" r="5.6"></circle> <circle fill="#99CA45" cx="68.3" cy="132.1" r="5.6"></circle> <circle fill="#545BA8" cx="93.2" cy="146.2" r="5.6"></circle> <circle fill="#77C79A" cx="45.9" cy="142.4" r="5.6"></circle> <circle fill="#99CA45" cx="158.9" cy="132.1" r="5.6"></circle> </g> </g> </svg> 